<?xml version="1.0" standalone="no"?>
<!DOCTYPE svg PUBLIC "-//W3C//DTD SVG 20010904//EN"
 "http://www.w3.org/TR/2001/REC-SVG-20010904/DTD/svg10.dtd">
<svg version="1.0" xmlns="http://www.w3.org/2000/svg"
 width="512.000000pt" height="512.000000pt" viewBox="0 0 512.000000 512.000000"
 preserveAspectRatio="xMidYMid meet">
<metadata>
Created by potrace 1.14, written by Peter Selinger 2001-2017
</metadata>
<g transform="translate(0.000000,512.000000) scale(0.100000,-0.100000)"
fill="#000000" stroke="none">
<path d="M855 4516 c-168 -27 -370 -104 -492 -187 -159 -108 -281 -278 -335
-466 -21 -72 -23 -98 -23 -343 0 -246 2 -271 23 -343 41 -142 92 -229 236
-396 95 -111 144 -162 190 -199 28 -21 28 -42 0 -42 -8 0 -14 -3 -14 -7 0 -5
-10 -13 -23 -19 -128 -65 -168 -100 -188 -167 -53 -179 25 -430 181 -584 82
-81 171 -114 237 -87 46 18 361 202 405 236 53 41 80 103 82 188 0 39 4 70 8
70 7 0 311 -174 663 -378 44 -26 92 -54 107 -62 205 -116 438 -254 438 -260 0
-5 -37 -29 -82 -53 -95 -52 -128 -84 -152 -147 -20 -50 -23 -182 -7 -237 5
-18 8 -33 6 -33 -2 0 3 -19 11 -42 72 -207 227 -370 353 -371 37 -1 61 7 116
39 334 194 358 210 380 244 31 50 45 97 46 162 l2 57 41 -21 c35 -19 58 -22
151 -22 139 0 297 12 400 29 44 7 96 16 115 19 61 9 242 54 340 85 248 76 456
171 759 345 287 164 289 167 290 432 2 179 1 181 -26 234 -35 66 -83 106 -148
121 -55 12 -106 34 -175 75 -25 14 -164 95 -310 179 -146 84 -332 191 -413
239 -82 47 -153 86 -158 86 -5 0 -9 5 -9 10 0 6 -4 10 -10 10 -5 0 -86 45
-181 100 -94 55 -173 100 -175 100 -2 0 -28 16 -58 35 -30 19 -57 35 -60 35
-2 0 -50 27 -106 60 -56 33 -104 60 -106 60 -3 0 -17 8 -32 19 -15 10 -180
106 -367 214 -187 107 -356 204 -375 215 -19 12 -69 40 -111 64 -66 37 -92 61
-189 173 -219 254 -357 360 -595 459 -179 74 -457 104 -660 72z"/>
</g>
</svg>
